<?xml version="1.0" encoding="utf-8"?>
<!-- Svg Vector Icons : http://www.onlinewebfonts.com/icon -->
<!DOCTYPE svg PUBLIC "-//W3C//DTD SVG 1.1//EN" "http://www.w3.org/Graphics/SVG/1.1/DTD/svg11.dtd">
<svg version="1.1" xmlns="http://www.w3.org/2000/svg" xmlns:xlink="http://www.w3.org/1999/xlink" x="0px" y="0px" viewBox="0 0 256 256" enable-background="new 0 0 256 256" xml:space="preserve">
<metadata> Svg Vector Icons : http://www.onlinewebfonts.com/icon </metadata>
<g><g><g><path fill="#000000" d="M11.3,185.4c-0.9-0.7-1.3-1.3-1.3-1.9c0-0.4,0.1-0.7,0.4-1c0.5-0.6,1.1-0.9,1.8-0.9c0.6,0,1.2,0.2,1.9,0.6c16.4,9.3,34.4,16.5,54.2,21.8c19.7,5.3,40.2,7.9,61.3,7.9c13.4,0,27.1-1.2,41.1-3.6c14-2.4,27.9-6.1,41.8-11c1-0.4,2-0.7,2.9-1c1-0.3,2-0.7,3.1-1.2c1-0.4,2-0.5,2.9-0.3c1,0.2,1.7,0.6,2.1,1.3c0.3,0.5,0.5,1,0.6,1.6c0,1.2-0.6,2.1-1.8,2.8c-1.6,1.2-3.2,2.2-4.9,3.1c-1.7,0.9-3.4,1.9-4.9,2.9c-12.6,6.8-26.4,11.9-41.6,15.2c-15.1,3.4-29.8,5.1-44,5.1c-22.5,0-43.6-3.7-63.1-11C44.2,208.5,26.7,198.4,11.3,185.4z M148.5,76.5c0-2.9,0-5.8-0.1-8.9c-0.1-3.1-1-5.8-2.8-8.1c-1.6-2.3-3.6-3.9-6.2-4.9c-2.6-1-5.1-1.5-7.6-1.5h-1.9c-4.4,0.4-8.4,1.8-12,4.1c-3.6,2.3-5.9,5.8-7,10.4c-0.2,1-0.6,1.9-1.3,2.7c-0.7,0.8-1.6,1.4-2.7,1.9l-24.1-3.1c-1-0.2-1.9-0.6-2.8-1.3c-0.9-0.7-1.2-1.8-0.8-3.3c1.4-6.4,3.8-11.8,7.2-16.1c3.4-4.4,7.4-7.9,12.1-10.7s9.8-4.8,15.2-6.1c5.5-1.3,11-2.1,16.6-2.5h5.1c6.1,0,12.7,0.8,19.7,2.5c7,1.7,13.1,4.7,18.2,9.1c3,2.6,5.3,5.4,6.8,8.5c1.5,3,2.5,6.2,3.1,9.6c0.6,3.3,0.9,6.8,0.9,10.5v11.4v37c0,5.6,1,9.9,2.9,13c1.9,3.1,4.1,6,6.5,8.7c0.7,1,1.1,2,1.1,3c0,1.1-0.5,2-1.4,2.7c-2.4,2.1-5.5,4.6-9.4,7.5c-3.8,2.8-7,5.3-9.6,7.5c-1.8,1.1-3.9,1.2-6.5,0.3c-4-3.3-6.8-5.8-8.4-7.6l-6-7c-4,3.8-7.9,6.9-11.8,9.2c-3.8,2.3-7.7,4-11.8,5.1c-5.3,1.1-11.3,1.7-17.9,1.7c-10.4,0-19.1-2.9-26.2-8.8c-7-5.9-10.5-14.6-10.5-26.3c0-9.7,2.4-17.7,7.2-24.2c4.8-6.5,11.3-11.3,19.4-14.6c4.2-1.8,8.6-3.1,13.3-4.1c4.7-0.9,9.7-1.7,14.8-2.3c3.4-0.4,6.6-0.7,9.7-0.9c3.1-0.2,6-0.5,8.7-0.9V76.5L148.5,76.5z M148.5,98.9c-3.2,0-6.4,0.1-9.6,0.3c-3.2,0.2-6.2,0.6-9,1.2c-5.2,1.6-9.6,4-13.4,7.4c-3.7,3.3-5.6,8.3-5.6,14.8c0,5.2,1.4,9.4,4.1,12.6c2.7,3.2,6.5,4.7,11.3,4.7c0.8,0,1.5-0.1,2-0.2c0.6-0.1,1.1-0.2,1.5-0.2c6.2-1.4,10.8-4.9,13.9-10.5c2.8-4.2,4.3-8.3,4.5-12.3c0.2-3.9,0.2-8.2,0.2-12.9L148.5,98.9L148.5,98.9z M229.4,216.9c-1,1-2,1.3-2.8,0.9c-0.8-0.4-1-1.2-0.7-2.3l2.8-6.7c1.1-2.7,2-5.4,3-8.1c0.9-2.7,1.6-5.1,1.8-7.3c0.3-2.2,0-3.8-0.7-4.7c-1.2-1.6-3.8-2.4-7.9-2.6c-0.8,0-1.6,0-2.5,0c-3.3,0-6.7,0.1-10,0.4c-1.8,0.4-3.5,0.6-5.1,0.6c-1.6,0-3.2,0.2-4.6,0.6c-1.2,0-1.9-0.4-2-1c-0.2-0.7,0.3-1.4,1.4-2.2c3-2,6.5-3.5,10.3-4.8c3.4-0.8,6.9-1.3,10.3-1.6c2.1-0.2,4.1-0.3,6-0.3c1.3,0,2.7,0,4.1,0.1c3.3,0.2,5.9,0.5,8,1c2.1,0.5,3.5,1,4.2,1.6c0.2,0.4,0.4,0.9,0.6,1.5c0.2,0.6,0.3,1.4,0.3,2.4v1.2c0,1.9-0.4,4.3-1.2,7.2c-0.7,2.8-1.8,5.7-3,8.5c-1.2,2.9-2.9,5.7-5,8.6C234.6,212.5,232.2,214.9,229.4,216.9z"/></g><g></g><g></g><g></g><g></g><g></g><g></g><g></g><g></g><g></g><g></g><g></g><g></g><g></g><g></g><g></g></g></g>
</svg>