<?xml version="1.0" standalone="no"?>
<!DOCTYPE svg PUBLIC "-//W3C//DTD SVG 20010904//EN"
 "http://www.w3.org/TR/2001/REC-SVG-20010904/DTD/svg10.dtd">
<svg version="1.0" xmlns="http://www.w3.org/2000/svg"
 width="300.000000pt" height="300.000000pt" viewBox="0 0 300.000000 300.000000"
 preserveAspectRatio="xMidYMid meet">
<metadata>
Created by potrace 1.10, written by Peter Selinger 2001-2011
</metadata>
<g transform="translate(0.000000,300.000000) scale(0.100000,-0.100000)"
fill="#000000" stroke="none">
<path d="M1360 2655 c-81 -18 -210 -81 -273 -134 -95 -80 -176 -200 -208 -311
-20 -71 -18 -70 -157 -70 -69 0 -143 -5 -165 -12 -60 -18 -100 -63 -120 -138
-59 -210 -165 -337 -342 -409 -55 -22 -72 -34 -81 -58 -15 -36 -1 -71 36 -89
14 -7 57 -27 95 -45 134 -62 228 -183 284 -364 46 -148 80 -168 288 -173 l142
-4 12 -36 c6 -21 14 -41 18 -47 3 -5 7 -19 8 -29 6 -36 73 -144 124 -200 62
-68 165 -138 253 -171 75 -28 225 -49 260 -35 34 12 49 63 32 103 l-13 32 46
1 c59 1 177 57 243 114 60 53 117 132 124 173 5 28 2 25 -27 -23 -72 -122
-216 -224 -350 -249 -110 -20 -255 9 -349 69 -62 40 -142 125 -179 190 -23 41
-31 49 -31 32 0 -39 40 -104 104 -168 71 -71 185 -131 266 -141 40 -5 50 -9
45 -21 -4 -12 -3 -12 9 -3 19 16 78 10 93 -9 21 -26 15 -60 -11 -70 -23 -8
-69 -5 -87 6 -4 2 -9 -1 -11 -7 -5 -15 -124 14 -196 48 -125 58 -204 133 -305
289 l-34 51 40 -1 c53 -1 92 40 81 88 -15 72 -63 135 -117 155 -16 6 -83 11
-150 11 -67 0 -131 3 -143 6 -15 4 -26 24 -43 77 -54 166 -128 284 -231 364
-33 25 -60 49 -60 52 0 4 12 14 28 24 107 66 195 192 258 372 15 44 33 83 38
87 6 4 65 8 131 8 66 0 138 5 160 11 55 16 101 68 121 137 89 312 425 467 705
327 137 -69 205 -156 273 -347 13 -35 23 -48 43 -53 37 -9 83 13 98 48 11 26
9 40 -16 110 -95 268 -311 431 -589 442 -71 3 -126 0 -170 -10z m73 -44 c-3
-21 0 -48 6 -60 11 -20 10 -21 -13 -15 -25 6 -73 -5 -136 -33 -103 -45 -209
-144 -252 -233 -27 -57 -25 -55 -43 -40 -8 7 -29 15 -45 19 l-30 6 42 69 c50
84 143 179 223 226 32 19 102 49 154 67 53 17 97 32 98 32 0 1 -1 -16 -4 -38z
m192 19 c113 -30 247 -105 316 -177 57 -59 142 -190 134 -204 -4 -5 -2 -15 3
-22 17 -22 34 -86 27 -106 -8 -25 -41 -36 -60 -21 -8 7 -21 33 -29 59 -39 128
-133 250 -246 318 -54 33 -161 65 -192 59 -26 -5 -28 -4 -17 16 6 11 9 39 6
60 -5 34 -3 39 11 33 10 -4 31 -11 47 -15z m-77 -12 c13 -17 -2 -55 -25 -62
-40 -12 -73 5 -73 39 0 13 6 26 13 28 24 10 75 7 85 -5z m-561 -445 c-6 -53
-35 -88 -65 -79 -28 9 -34 32 -20 78 14 49 43 71 71 57 16 -9 19 -18 14 -56z
m-57 -110 l35 -11 -40 -18 c-30 -12 -75 -18 -179 -20 -152 -4 -164 -8 -186
-67 -7 -18 -17 -43 -23 -57 -5 -14 -11 -30 -13 -37 -13 -66 -101 -193 -204
-293 l-57 -55 -74 34 -74 34 34 9 c37 10 97 49 147 95 61 56 108 144 168 314
22 62 67 105 121 117 24 5 88 10 142 11 53 1 103 6 112 10 10 6 20 0 36 -23
11 -17 36 -36 55 -43z m-752 -539 c34 -16 52 -29 49 -38 -4 -9 2 -12 16 -9 17
3 43 -16 107 -79 69 -68 94 -101 132 -176 26 -51 54 -116 63 -146 19 -64 46
-96 83 -96 177 -2 250 -9 292 -28 32 -15 39 -21 23 -21 -36 -2 -53 -12 -69
-42 -12 -24 -18 -28 -34 -19 -10 5 -70 10 -132 10 -89 0 -122 4 -155 19 -51
24 -64 43 -103 156 -17 50 -49 120 -71 157 -46 79 -144 170 -207 194 -41 17
-43 19 -26 32 18 14 18 14 0 8 -29 -10 -94 12 -107 36 -10 19 -8 25 13 43 33
28 62 28 126 -1z m792 -646 c24 -38 22 -86 -2 -102 -26 -16 -50 3 -70 55 -14
40 -15 46 0 62 23 26 50 21 72 -15z"/>
<path d="M2170 2130 c8 -5 63 -10 121 -10 123 0 189 -18 218 -58 10 -15 31
-63 46 -107 15 -44 43 -111 62 -149 52 -104 177 -216 240 -216 10 0 -6 14 -37
32 -115 65 -199 185 -251 358 -26 87 -64 132 -124 149 -51 14 -296 15 -275 1z"/>
<path d="M2050 2035 c31 -33 92 -45 229 -45 85 0 122 -4 128 -12 4 -7 20 -51
36 -98 42 -127 90 -205 178 -292 73 -73 99 -91 99 -69 0 5 -27 32 -60 61 -55
48 -160 187 -160 211 0 6 -11 35 -25 65 -14 30 -25 63 -25 74 0 10 -11 32 -25
48 l-25 29 -143 5 c-120 3 -150 8 -186 25 l-43 22 22 -24z"/>
<path d="M1066 1670 l-57 -110 32 0 c22 0 32 5 36 20 4 16 14 20 48 20 35 0
45 -4 50 -20 4 -14 15 -20 37 -20 16 0 28 3 26 8 -33 72 -104 211 -109 212 -3
0 -31 -49 -63 -110z m84 -22 c0 -4 -11 -8 -25 -8 -23 0 -24 2 -13 26 11 24 13
25 25 8 7 -10 13 -21 13 -26z"/>
<path d="M1340 1670 l0 -110 75 0 c73 0 75 1 75 25 0 23 -3 25 -50 25 l-50 0
0 85 c0 84 0 85 -25 85 l-25 0 0 -110z"/>
<path d="M1534 1760 c0 -16 7 -20 36 -20 l35 0 -3 -90 -4 -90 26 0 26 0 0 90
0 90 35 0 c28 0 35 4 35 20 0 19 -7 20 -93 20 -86 0 -93 -1 -93 -20z"/>
<path d="M1815 1677 c-27 -56 -51 -105 -53 -109 -2 -5 10 -8 26 -8 22 0 33 6
37 20 5 16 15 20 50 20 34 0 44 -4 48 -20 4 -15 14 -20 36 -20 l31 0 -55 110
c-30 61 -59 110 -63 110 -4 -1 -29 -47 -57 -103z m63 -35 c-27 -5 -32 2 -18
29 l13 22 13 -24 c11 -22 11 -24 -8 -27z"/>
<path d="M2805 1536 c-187 -91 -297 -224 -369 -443 -15 -46 -28 -84 -29 -84
-1 -1 -72 -5 -158 -8 -152 -6 -157 -7 -193 -35 -42 -31 -76 -99 -76 -150 0
-44 31 -71 80 -70 l38 1 -30 -51 c-78 -132 -173 -229 -264 -272 -65 -30 -150
-61 -191 -69 -55 -11 -52 -29 3 -20 157 23 330 136 423 275 35 52 65 112 67
135 1 10 18 55 34 85 6 12 37 16 151 20 205 8 238 27 280 168 65 212 179 342
348 398 41 13 56 24 66 46 23 55 -1 100 -60 112 -23 4 -51 -5 -120 -38z m143
-12 c30 -21 28 -41 -8 -59 -37 -19 -68 -19 -115 0 -31 14 -35 18 -24 31 32 39
110 54 147 28z m-123 -73 l60 -28 -38 -11 c-118 -33 -235 -180 -302 -377 -46
-136 -80 -155 -284 -155 -97 0 -121 -3 -121 -14 0 -8 -6 -16 -14 -19 -8 -3
-19 -21 -25 -40 -22 -64 -106 -54 -95 11 11 57 42 112 64 112 12 0 19 4 16 9
-12 18 54 31 181 34 148 4 162 9 185 76 7 20 12 38 13 41 0 3 9 28 20 55 33
88 91 178 155 240 34 33 70 68 79 77 22 22 36 21 106 -11z"/>
<path d="M775 1477 c-32 -27 -44 -92 -25 -137 32 -76 164 -80 198 -5 22 49 17
55 -47 55 -57 0 -58 -1 -53 -25 3 -20 9 -24 23 -20 23 8 26 -10 3 -19 -28 -11
-64 5 -80 35 -13 26 -13 32 0 58 24 45 79 47 111 4 15 -20 49 6 39 30 -18 48
-124 63 -169 24z"/>
<path d="M1060 1390 l0 -110 25 0 c18 0 25 5 25 20 0 16 7 20 30 20 23 0 30
-4 30 -20 0 -15 7 -20 29 -20 29 0 30 1 19 30 -8 25 -7 34 6 49 9 10 16 35 16
59 0 59 -32 82 -116 82 l-64 0 0 -110z m104 64 c26 -10 38 -41 26 -64 -8 -14
-21 -20 -45 -20 -35 0 -35 0 -35 45 0 47 12 55 54 39z"/>
<path d="M1383 1389 l-52 -109 28 0 c16 0 31 7 35 15 4 10 20 15 50 15 30 0
46 -5 50 -15 3 -8 18 -15 34 -15 l28 0 -54 108 c-29 59 -57 108 -60 109 -4 1
-30 -47 -59 -108z m77 -9 c9 -18 8 -20 -15 -20 -23 0 -24 2 -15 20 6 11 13 20
15 20 2 0 9 -9 15 -20z"/>
<path d="M1668 1480 c-39 -30 -53 -73 -40 -119 16 -51 42 -72 96 -78 70 -8
121 34 82 66 -12 10 -19 8 -34 -7 -35 -35 -102 -2 -102 49 0 50 71 80 109 45
16 -15 20 -15 31 -1 41 50 -85 90 -142 45z"/>
<path d="M1925 1390 l0 -110 28 0 27 0 0 110 0 110 -27 0 -28 0 0 -110z"/>
<path d="M2129 1390 l-55 -110 28 0 c16 0 31 7 34 15 4 10 20 15 50 15 30 0
46 -5 50 -15 4 -8 19 -15 35 -15 l28 0 -52 109 c-29 61 -54 110 -57 110 -3 1
-30 -49 -61 -109z m75 -6 c9 -23 8 -24 -19 -24 -23 0 -24 2 -13 20 15 24 24
25 32 4z"/>
</g>
</svg>
