<?xml version="1.0" standalone="no"?>
<!DOCTYPE svg PUBLIC "-//W3C//DTD SVG 20010904//EN"
 "http://www.w3.org/TR/2001/REC-SVG-20010904/DTD/svg10.dtd">
<svg version="1.0" xmlns="http://www.w3.org/2000/svg"
 width="300.000000pt" height="276.000000pt" viewBox="0 0 300.000000 276.000000"
 preserveAspectRatio="xMidYMid meet">
<metadata>
Created by potrace 1.10, written by Peter Selinger 2001-2011
</metadata>
<g transform="translate(0.000000,276.000000) scale(0.100000,-0.100000)"
fill="#000000" stroke="none">
<path d="M1280 2725 c0 -8 -9 -15 -20 -15 -11 0 -20 -4 -20 -9 0 -5 -10 -11
-22 -13 -12 -2 -29 -15 -37 -30 -14 -25 -14 -29 7 -57 29 -40 28 -57 -7 -92
-49 -48 -123 -37 -134 21 -7 32 -39 52 -68 41 -27 -10 -169 -184 -169 -207 0
-21 28 -54 47 -54 11 0 34 -55 52 -125 15 -56 13 -175 -4 -270 -17 -96 -19
-245 -4 -315 15 -70 64 -138 129 -181 30 -20 112 -60 182 -89 70 -29 148 -66
173 -82 40 -26 100 -97 115 -135 3 -7 25 16 50 54 54 80 104 116 241 173 195
82 263 133 308 230 33 73 40 193 16 309 -38 189 -12 401 55 436 25 13 40 33
40 55 0 13 -158 197 -174 203 -20 8 -60 -16 -65 -38 -8 -46 -71 -59 -114 -25
-37 30 -42 54 -16 89 19 26 21 34 10 57 -6 14 -20 28 -31 31 -11 3 -20 11 -20
18 0 8 -9 10 -25 7 -18 -3 -25 0 -25 12 0 14 -25 16 -235 16 -202 0 -235 -2
-235 -15z m440 -15 c0 -6 -75 -10 -205 -10 -130 0 -205 4 -205 10 0 6 75 10
205 10 130 0 205 -4 205 -10z m46 -29 c-3 -5 8 -11 24 -15 37 -7 50 -34 26
-51 -26 -20 -72 -4 -69 23 2 16 -3 22 -18 22 -14 0 -19 -5 -16 -14 9 -23 -18
-37 -65 -34 -34 2 -43 7 -42 21 1 10 -5 17 -17 17 -10 0 -18 -3 -18 -7 5 -30
-3 -34 -58 -31 -53 3 -58 5 -56 26 2 16 -2 22 -18 22 -11 0 -19 -6 -18 -12 4
-35 -1 -39 -53 -36 -53 3 -65 12 -49 37 7 11 46 14 194 14 101 -1 191 3 198 8
8 5 -69 9 -188 9 -129 0 -203 -4 -203 -10 0 -5 -9 -10 -19 -10 -13 0 -21 -8
-23 -22 -2 -19 -9 -23 -38 -23 -28 0 -35 4 -35 20 0 15 8 21 33 23 20 2 32 9
32 18 0 12 39 14 251 14 141 0 248 -4 245 -9z m-262 -97 c3 -9 6 -62 6 -119 0
-92 -2 -105 -20 -118 -15 -10 -20 -26 -21 -75 -1 -34 -6 -62 -10 -62 -10 0
-13 18 -11 67 1 35 -16 47 -53 37 -22 -5 -23 -9 -18 -55 3 -28 2 -49 -4 -49
-9 0 -136 153 -179 216 l-21 31 33 36 c25 27 34 46 34 72 l0 35 129 0 c108 0
130 -3 135 -16z m286 -10 c0 -34 27 -79 57 -95 17 -9 20 -15 12 -26 -6 -7 -9
-13 -5 -13 3 0 -5 -12 -18 -27 -70 -82 -107 -126 -137 -167 -18 -25 -36 -46
-41 -46 -4 0 -8 25 -8 55 l0 55 -34 0 c-33 0 -35 -2 -38 -37 -4 -53 -23 -38
-21 17 1 34 -3 47 -18 58 -15 10 -19 25 -19 68 0 30 4 54 8 54 4 0 33 -9 64
-20 31 -11 75 -22 99 -26 24 -3 54 -13 67 -20 19 -13 22 -13 22 1 0 9 -11 27
-25 41 -20 20 -29 23 -40 14 -10 -8 -19 -8 -34 -1 -11 6 -29 11 -40 11 -12 0
-38 9 -58 20 -21 11 -43 20 -50 20 -7 0 -13 5 -13 10 0 15 41 12 70 -5 14 -8
44 -14 68 -15 40 0 56 -13 30 -23 -15 -6 60 3 81 9 22 7 -76 54 -113 54 -18 0
-41 7 -52 15 -10 8 -33 15 -51 15 -33 0 -52 15 -31 23 7 3 70 6 141 6 l127 1
0 -26z m-775 -46 c0 -22 -144 -190 -159 -185 -24 8 -8 42 59 122 66 79 100
101 100 63z m1090 -69 c73 -88 85 -114 54 -114 -18 0 -159 157 -159 177 0 16
9 28 21 28 4 0 42 -41 84 -91z m-49 -34 c78 -91 77 -89 59 -126 -47 -90 -59
-262 -30 -416 17 -91 19 -192 4 -246 l-10 -37 -182 2 -182 3 0 133 0 133 43
54 c24 30 47 55 50 55 9 0 111 -38 142 -53 14 -6 40 -26 58 -44 46 -46 55 -41
25 15 -30 57 -28 54 -50 56 -10 1 -34 9 -53 17 -19 9 -48 21 -63 28 -32 13
-28 32 6 24 28 -6 47 -14 120 -47 33 -15 61 -25 64 -22 9 9 -60 65 -89 71 -15
4 -30 11 -33 16 -4 5 -20 9 -36 9 -26 0 -29 2 -19 19 14 26 13 31 -5 25 -8 -4
-15 -11 -15 -16 0 -6 -35 -54 -77 -107 -43 -53 -79 -98 -80 -100 -7 -10 -16
12 -30 69 l-14 61 66 83 c75 95 58 91 200 46 46 -14 77 -31 92 -48 25 -32 35
-27 25 14 -6 20 -21 36 -48 50 -21 12 -42 19 -46 17 -4 -2 -26 3 -50 12 -24 8
-51 15 -61 15 -10 0 -16 4 -13 9 4 5 21 8 39 7 17 -2 44 -4 58 -5 14 0 34 -9
45 -19 25 -23 74 -35 67 -16 -12 32 -71 63 -123 66 -35 2 -55 8 -58 17 -3 8 0
11 6 7 5 -3 12 1 16 9 11 30 -13 14 -46 -29 -18 -25 -62 -82 -98 -128 l-65
-83 -5 40 c-10 79 3 119 65 197 32 40 60 75 61 77 5 6 123 -19 174 -37 25 -8
55 -24 68 -35 24 -22 28 -12 11 26 -11 24 -47 48 -79 52 -42 6 -134 26 -138
30 -3 2 3 8 13 11 24 10 112 -9 166 -35 23 -12 52 -21 62 -21 20 0 20 0 1 21
-29 32 -74 52 -134 58 -46 5 -55 9 -55 26 0 14 8 21 25 23 36 4 80 23 80 34 0
18 16 3 76 -67z m-1013 48 c12 -11 37 -18 70 -19 41 -2 52 -6 58 -22 8 -22
-11 -32 -64 -32 -36 0 -107 -32 -131 -59 -19 -21 -19 -21 4 -21 12 0 39 9 59
19 72 38 162 54 176 31 3 -6 -4 -10 -17 -10 -13 0 -47 -9 -76 -19 -29 -11 -49
-15 -46 -9 4 6 3 9 -2 6 -49 -22 -64 -35 -73 -59 -11 -32 -3 -46 14 -23 17 24
107 55 205 70 34 5 37 3 90 -66 43 -56 54 -79 52 -102 -1 -17 1 -36 6 -42 4
-6 5 -27 2 -48 l-5 -36 -82 103 c-46 57 -83 108 -83 113 0 6 -7 12 -15 16 -9
3 -15 0 -15 -9 0 -8 6 -15 13 -15 31 -1 -17 -17 -55 -18 -43 -2 -102 -33 -118
-61 -8 -16 -5 -17 18 -13 15 3 32 11 37 17 14 17 120 39 142 30 14 -6 9 -11
-27 -22 -25 -7 -58 -15 -75 -16 -16 -1 -32 -5 -35 -8 -3 -3 -18 -12 -35 -20
-20 -10 -31 -24 -36 -46 -8 -38 4 -43 26 -10 9 14 37 30 72 41 32 10 65 21 73
23 76 25 75 26 138 -52 l60 -72 -9 -49 c-13 -67 -19 -86 -29 -82 -5 2 -40 44
-79 93 -39 50 -76 96 -82 103 -6 7 -14 11 -17 7 -3 -3 0 -11 6 -17 18 -18 15
-25 -15 -31 -51 -9 -104 -34 -135 -61 -55 -48 -34 -44 117 24 32 14 68 16 72
3 2 -6 -10 -14 -28 -18 -18 -4 -48 -16 -66 -26 -35 -20 -60 -26 -33 -9 12 8
12 10 1 10 -16 0 -34 -21 -62 -73 -27 -51 -17 -58 23 -16 30 32 58 49 113 69
11 4 33 13 48 19 41 16 42 16 91 -45 32 -38 46 -65 46 -86 0 -16 -4 -27 -9
-24 -4 3 -6 17 -3 31 2 15 0 25 -7 25 -14 0 -15 -77 0 -86 7 -4 9 -34 6 -88
-3 -44 -6 -82 -6 -83 -1 -2 -86 -3 -190 -3 l-188 0 -7 31 c-11 55 -6 191 9
284 26 156 14 290 -34 382 l-18 37 65 78 c36 43 67 78 70 78 3 0 14 -8 25 -17z
m479 -224 c3 -16 1 -29 -4 -29 -4 0 -8 1 -8 3 0 1 -4 16 -9 34 -7 25 -6 31 4
27 7 -3 15 -19 17 -35z m87 -35 c2 -2 -9 -4 -26 -4 -27 0 -30 -3 -25 -22 4
-17 2 -20 -12 -15 -10 4 -22 7 -27 7 -5 0 -9 7 -9 15 0 9 6 12 15 9 10 -4 15
0 15 10 0 13 7 15 32 11 18 -4 34 -8 37 -11z m-156 -36 c4 -15 11 -18 29 -13
15 5 20 4 13 -3 -5 -5 -20 -13 -32 -17 -19 -5 -23 -2 -23 14 0 23 -16 36 -25
21 -9 -14 -25 -12 -25 3 0 8 12 14 29 15 21 0 30 -5 34 -20z m137 7 c0 -8 -4
-15 -10 -15 -5 0 -7 -7 -4 -15 4 -8 1 -15 -5 -15 -12 0 -13 6 -5 38 7 25 24
30 24 7z m27 -8 c-2 -7 0 -24 4 -39 5 -19 4 -28 -4 -29 -9 0 -8 -2 1 -6 6 -2
12 -9 12 -14 0 -6 -4 -7 -10 -4 -5 3 -10 2 -10 -4 0 -5 6 -12 13 -14 7 -3 5
-6 -5 -6 -10 -1 -18 6 -18 14 0 8 -7 15 -15 15 -21 0 -19 18 3 23 9 3 1 5 -18
5 -19 0 -29 -2 -22 -5 6 -2 12 -9 12 -14 0 -6 -4 -7 -10 -4 -5 3 -10 -1 -10
-9 0 -21 -26 -21 -34 0 -9 24 -7 36 4 29 6 -4 8 -11 5 -16 -4 -5 -1 -9 4 -9 6
0 11 7 11 15 0 8 -4 15 -10 15 -5 0 -10 5 -10 10 0 7 19 8 53 5 28 -4 47 -3
40 2 -13 10 -5 66 9 57 5 -3 7 -11 5 -17z m-127 -87 c0 -18 -3 -19 -20 -10
-11 6 -20 15 -20 20 0 6 9 10 20 10 13 0 20 -7 20 -20z m10 -43 c0 -5 -4 -5
-10 -2 -6 3 -10 -5 -10 -19 0 -21 3 -24 30 -20 17 3 30 1 30 -5 0 -6 -9 -11
-20 -11 -11 0 -20 -7 -20 -15 0 -9 -10 -15 -26 -15 -15 0 -23 4 -19 11 4 6 14
8 22 5 9 -4 13 -1 11 6 -3 7 -17 14 -31 16 -29 4 -36 27 -17 62 8 15 13 16 35
7 14 -7 25 -16 25 -20z m88 -10 c3 -32 0 -37 -17 -37 -17 0 -21 6 -21 33 0 61
33 63 38 4z m-155 -67 c7 0 4 -5 -5 -11 -12 -7 -24 -7 -35 0 -10 6 -13 11 -6
11 8 0 10 7 6 18 -7 16 -6 16 11 0 9 -10 23 -18 29 -18z m151 9 c-5 -9 2 -10
22 -6 16 3 24 4 17 1 -7 -3 -9 -12 -6 -21 5 -12 3 -14 -8 -8 -12 8 -12 6 0 -8
12 -15 11 -17 -5 -18 -11 0 -5 -6 16 -13 28 -11 31 -14 15 -18 -11 -2 -33 -1
-48 3 -16 5 -35 5 -44 2 -11 -4 -14 -2 -11 8 3 8 12 14 22 14 9 0 21 7 26 15
12 18 13 31 3 28 -5 -2 -9 1 -10 6 -1 5 -7 13 -15 17 -9 6 -6 9 10 9 15 0 21
-4 16 -11z m-84 -39 c0 -10 -14 -14 -38 -11 -7 1 -15 -6 -19 -15 -6 -16 -7
-16 -14 2 -7 17 -8 17 -8 -3 -1 -18 -7 -23 -27 -23 -14 0 -23 4 -19 10 3 6 13
10 21 10 8 0 14 4 14 10 0 5 -7 7 -15 4 -8 -4 -15 -1 -15 4 0 6 12 12 28 14
61 8 92 7 92 -2z m70 -6 c0 -11 -5 -14 -17 -9 -10 4 -24 8 -30 8 -28 1 -11 17
17 17 21 0 30 -5 30 -16z m-50 -25 c0 -6 -3 -8 -7 -6 -5 3 -17 1 -28 -3 -16
-5 -19 -14 -17 -43 3 -32 1 -37 -18 -37 -12 0 -24 9 -30 23 -8 21 -9 21 -9 -5
-1 -17 -7 -28 -15 -28 -20 0 -25 11 -19 43 4 23 10 27 32 25 18 -2 29 3 35 18
7 15 19 21 43 22 18 1 33 -3 33 -9z m18 -41 c2 -11 -3 -18 -11 -18 -8 0 -17
-7 -21 -15 -10 -28 -26 -15 -26 21 0 33 2 35 27 32 17 -2 29 -10 31 -20z m70
-20 c4 -35 -23 -39 -34 -5 -4 12 -12 26 -18 30 -6 4 2 6 19 5 24 -2 31 -8 33
-30z m41 23 c11 -7 10 -13 -4 -35 -10 -14 -19 -26 -21 -26 -2 0 -4 16 -4 35 0
36 5 41 29 26z m-279 -10 c0 -6 -5 -13 -10 -16 -6 -4 -8 -11 -5 -16 4 -5 1 -9
-4 -9 -6 0 -11 11 -11 25 0 16 6 25 15 25 8 0 15 -4 15 -9z m231 -55 c62 -8
85 -16 68 -27 -10 -6 -10 -11 1 -23 16 -20 6 -33 -13 -17 -8 6 -27 12 -43 13
-16 1 -32 7 -36 12 -4 6 -13 4 -23 -4 -10 -8 -19 -10 -23 -4 -11 15 -32 11
-46 -8 -7 -10 -16 -15 -19 -11 -11 10 -8 25 3 18 6 -3 10 0 10 8 0 11 11 14
40 13 23 -1 43 1 46 6 3 4 -4 8 -15 8 -16 0 -21 6 -21 27 0 24 2 25 13 10 7
-9 32 -18 58 -21z m-85 -4 c-3 -6 -26 -9 -51 -9 -25 1 -45 -1 -45 -5 0 -5 -5
-8 -11 -8 -6 0 -9 6 -7 13 3 7 28 14 59 17 61 6 63 5 55 -8z m-66 -38 c0 -12
-7 -15 -25 -12 -14 3 -25 1 -25 -4 0 -6 -7 -8 -14 -5 -19 7 -29 -22 -20 -57 4
-19 2 -26 -8 -26 -14 0 -15 16 -9 87 1 6 18 15 39 21 54 14 62 14 62 -4z m81
-24 c16 -9 19 -22 19 -75 l0 -65 -95 0 c-57 0 -95 4 -95 10 0 6 15 10 33 11
17 0 26 3 20 6 -21 8 -15 33 8 33 15 0 20 -5 17 -22 -2 -18 2 -23 20 -24 20
-1 22 3 22 47 0 32 -4 49 -12 50 -7 0 -3 4 10 9 12 5 22 14 22 20 0 13 6 13
31 0z m-95 -35 c0 -34 -19 -49 -29 -22 -3 7 -6 5 -6 -5 -1 -25 -21 -23 -21 2
0 13 7 20 20 20 13 0 20 7 20 20 0 11 4 20 8 20 4 0 8 -16 8 -35z m225 18 c12
-15 12 -16 -7 -11 -12 3 -28 2 -35 -3 -10 -6 -8 -9 9 -9 15 0 22 -6 22 -20 0
-20 -11 -26 -24 -12 -8 7 -13 9 -46 11 -11 0 -20 6 -20 11 0 6 8 10 18 8 12
-2 16 3 15 20 -2 18 2 22 26 22 16 0 35 -8 42 -17z m-51 -63 c19 -6 43 -22 53
-35 l18 -25 -61 0 c-37 0 -60 4 -60 11 0 7 10 9 25 7 14 -3 25 -2 25 1 -1 11
-25 38 -40 44 -25 9 3 7 40 -3z m-105 -80 c192 3 200 2 290 -9 44 -5 89 -10
100 -10 17 -1 18 -3 5 -12 -12 -8 -9 -9 10 -4 37 10 140 15 140 7 0 -6 -20
-28 -79 -85 -18 -18 -21 -18 -45 -2 -14 9 -31 15 -37 13 -7 -2 2 -10 19 -17
18 -8 32 -17 32 -22 0 -13 -13 -11 -40 8 -20 14 -53 17 -215 18 -105 1 -196 4
-203 9 -7 4 -12 2 -12 -4 0 -7 -8 -9 -22 -4 -13 5 -116 7 -229 5 -139 -2 -209
1 -214 8 -4 7 7 11 32 11 21 0 47 7 57 15 19 14 18 15 -10 15 -17 0 -35 -5
-41 -11 -13 -13 -65 -8 -70 7 -5 14 134 23 242 14 44 -3 91 -3 105 1 18 5 9 8
-31 8 -31 1 -78 4 -105 8 -42 6 -45 8 -24 14 14 4 52 8 85 8 33 1 67 6 75 11
8 5 22 7 30 4 8 -4 78 -5 155 -4z m-417 -18 c6 -1 12 -5 12 -9 0 -5 -32 -9
-70 -11 -54 -2 -70 0 -70 11 0 10 15 13 58 12 31 -1 63 -2 70 -3z m624 -115
c178 -3 205 -12 136 -46 -25 -11 -52 -21 -62 -21 -9 0 -15 -4 -11 -9 3 -6 -10
-13 -30 -17 -19 -3 -38 -10 -41 -15 -3 -5 -47 -10 -97 -10 -90 -1 -91 -2 -42
-11 28 -6 52 -12 54 -14 4 -3 -97 -117 -108 -121 -3 -2 -35 24 -70 57 -35 33
-67 60 -72 60 -22 0 -6 19 19 23 15 2 -3 5 -40 6 -38 0 -68 5 -68 11 0 6 -8
10 -19 10 -10 0 -34 7 -52 15 l-34 14 47 1 c26 0 49 3 51 8 3 4 -29 7 -71 7
-66 0 -82 4 -110 25 l-34 25 134 5 c73 3 185 4 248 2 63 -2 186 -4 272 -5z"/>
<path d="M1418 1533 c54 -12 81 -13 105 -5 l32 10 -30 -1 c-16 0 -64 2 -105 6
l-75 6 73 -16z"/>
<path d="M1568 1538 c19 -19 312 -18 312 1 0 3 -55 3 -122 0 -68 -4 -127 -5
-133 -4 -5 2 -23 6 -40 10 -25 5 -28 4 -17 -7z"/>
<path d="M1925 1531 c-16 -3 -28 -10 -27 -15 2 -5 -2 -13 -10 -18 -10 -7 -8
-8 5 -4 10 3 30 -2 45 -11 l27 -17 -19 22 c-23 26 -18 33 31 42 33 7 34 8 8 8
-16 0 -43 -3 -60 -7z"/>
<path d="M1226 1502 c-2 -4 25 -8 62 -9 50 -1 59 1 37 7 -41 11 -93 12 -99 2z"/>
<path d="M1506 1495 c10 -8 30 -14 44 -14 17 1 19 3 7 6 -9 2 -15 9 -12 14 4
5 -8 9 -26 9 -31 0 -32 -1 -13 -15z"/>
<path d="M1598 1503 c18 -2 45 -2 60 0 15 2 0 4 -33 4 -33 0 -45 -2 -27 -4z"/>
<path d="M1670 1493 c-24 -12 -23 -13 20 -12 25 0 38 3 30 6 -8 3 -17 9 -20
13 -3 3 -16 0 -30 -7z"/>
<path d="M1820 1500 c0 -8 24 -20 39 -20 4 0 8 6 8 14 0 7 -11 14 -24 14 -12
0 -23 -4 -23 -8z"/>
<path d="M1365 1380 c-7 -11 22 -26 32 -16 4 3 -2 7 -13 8 -10 1 15 4 56 8
l75 6 -72 2 c-39 1 -75 -3 -78 -8z"/>
<path d="M1525 1380 c10 -16 73 -22 102 -11 27 11 27 11 -7 6 -19 -3 -50 -1
-68 4 -18 6 -30 6 -27 1z"/>
<path d="M56 945 c-18 -19 -22 -95 -6 -126 7 -13 21 -19 43 -19 42 0 57 15 57
57 0 30 -3 33 -30 33 -20 0 -30 -5 -30 -15 0 -8 9 -15 20 -15 11 0 20 -4 20
-9 0 -16 -27 -31 -44 -25 -25 10 -19 97 7 102 10 2 24 -4 31 -13 20 -28 38
-15 23 15 -15 31 -66 39 -91 15z"/>
<path d="M187 942 c-19 -21 -23 -92 -7 -123 8 -14 21 -19 49 -19 33 0 40 4 51
30 14 33 8 93 -11 116 -16 20 -63 17 -82 -4z m67 -28 c11 -27 6 -71 -8 -83
-25 -21 -46 -2 -46 43 0 24 3 46 7 49 12 13 41 7 47 -9z"/>
<path d="M300 880 l0 -80 50 0 c44 0 52 3 62 25 8 19 9 28 0 37 -6 6 -8 24 -5
39 8 41 -11 59 -63 59 l-44 0 0 -80z m85 30 c0 -9 -11 -16 -27 -18 -23 -3 -28
1 -28 18 0 17 5 21 28 18 16 -2 27 -9 27 -18z m-11 -46 c33 -13 11 -44 -30
-44 -8 0 -14 10 -14 25 0 25 13 31 44 19z"/>
<path d="M435 880 c0 -57 4 -80 13 -80 8 0 12 23 12 80 0 57 -4 80 -12 80 -9
0 -13 -23 -13 -80z"/>
<path d="M480 880 l0 -80 55 0 c30 0 55 5 55 10 0 6 -18 10 -41 10 -36 0 -40
2 -37 23 2 18 8 21 36 19 24 -3 32 0 32 12 0 12 -10 16 -35 16 -28 0 -35 4
-35 20 0 17 7 20 40 20 29 0 40 4 40 15 0 12 -13 15 -55 15 l-55 0 0 -80z"/>
<path d="M600 880 c0 -64 3 -80 15 -80 10 0 15 10 15 30 0 20 5 30 16 30 8 0
20 -13 25 -30 7 -19 18 -30 30 -30 19 0 19 1 3 31 -11 23 -13 34 -5 42 15 15
14 60 -1 75 -7 7 -31 12 -55 12 l-43 0 0 -80z m85 30 c0 -9 -11 -16 -27 -18
-23 -3 -28 1 -28 18 0 17 5 21 28 18 16 -2 27 -9 27 -18z"/>
<path d="M730 881 c0 -60 4 -80 14 -84 12 -5 16 5 18 46 l3 52 30 -47 c17 -28
37 -48 47 -48 16 0 18 10 18 80 0 63 -3 80 -14 80 -11 0 -16 -15 -18 -52 l-3
-53 -32 53 c-48 77 -63 70 -63 -27z"/>
<path d="M896 944 c-19 -19 -22 -114 -4 -132 16 -16 73 -15 86 1 26 31 19 120
-11 139 -20 13 -55 9 -71 -8z m62 -65 c3 -52 -15 -70 -43 -43 -29 30 -16 97
19 92 17 -2 22 -11 24 -49z"/>
<path d="M1060 877 l0 -83 47 6 c56 6 76 33 69 93 -6 53 -21 67 -72 67 l-44 0
0 -83z m84 37 c13 -33 6 -73 -13 -84 -35 -18 -41 -12 -41 45 0 51 2 55 24 55
13 0 27 -7 30 -16z"/>
<path d="M1195 881 l0 -79 53 -4 c41 -2 52 0 52 12 0 11 -11 15 -37 15 -31 0
-38 4 -38 20 0 17 6 19 33 17 24 -3 32 0 32 12 0 12 -10 16 -35 16 -28 0 -35
4 -35 20 0 17 7 20 40 20 29 0 40 4 40 15 0 11 -12 15 -52 15 l-53 0 0 -79z"/>
<path d="M1360 880 l0 -80 55 0 c30 0 55 5 55 10 0 6 -18 10 -40 10 l-40 0 0
70 c0 56 -3 70 -15 70 -12 0 -15 -16 -15 -80z"/>
<path d="M1513 880 c-28 -74 -29 -80 -12 -80 11 0 19 7 19 15 0 10 11 15 35
15 23 0 35 -5 35 -14 0 -8 7 -16 15 -20 8 -3 15 -1 15 5 0 27 -54 159 -65 159
-6 0 -25 -36 -42 -80z"/>
<path d="M1674 878 c1 -67 4 -83 16 -83 10 0 15 10 15 30 0 26 4 30 30 33 50
5 72 54 39 86 -9 10 -33 16 -58 16 l-42 0 0 -82z m86 33 c0 -20 -32 -37 -50
-26 -5 3 -10 15 -10 26 0 14 7 19 30 19 23 0 30 -5 30 -19z"/>
<path d="M1800 875 c0 -69 3 -85 15 -85 10 0 15 11 15 35 0 44 23 47 44 6 9
-16 22 -31 31 -34 19 -8 19 -3 0 34 -14 27 -14 32 0 51 31 46 6 78 -61 78
l-44 0 0 -85z m85 35 c0 -9 -11 -16 -27 -18 -23 -3 -28 1 -28 18 0 17 5 21 28
18 16 -2 27 -9 27 -18z"/>
<path d="M1947 942 c-19 -21 -23 -92 -7 -123 14 -25 71 -26 93 -1 21 24 22 90
1 120 -19 27 -64 29 -87 4z m71 -58 c3 -44 -14 -69 -42 -58 -11 4 -16 19 -16
48 0 49 6 58 35 54 16 -2 21 -12 23 -44z"/>
<path d="M2050 948 c0 -26 45 -148 56 -152 8 -3 20 19 33 64 12 38 24 76 27
85 4 9 0 15 -10 15 -9 0 -20 -16 -27 -42 -18 -64 -25 -65 -40 -9 -7 29 -19 51
-26 51 -7 0 -13 -5 -13 -12z"/>
<path d="M2183 880 c-3 -70 -1 -80 15 -80 15 0 17 9 14 80 -2 53 -8 80 -15 80
-8 0 -13 -27 -14 -80z"/>
<path d="M2230 880 c0 -63 3 -80 14 -80 11 0 16 14 18 48 l3 47 30 -47 c17
-27 33 -48 38 -48 4 0 10 0 13 0 3 0 7 36 7 80 2 72 0 80 -17 80 -16 0 -18 -5
-13 -45 4 -26 3 -45 -3 -45 -5 0 -21 20 -36 45 -40 69 -54 60 -54 -35z"/>
<path d="M2387 942 c-24 -26 -23 -104 1 -125 28 -26 81 -22 91 6 11 28 -4 34
-29 12 -16 -15 -22 -16 -35 -5 -24 20 -16 94 9 98 10 2 23 -3 28 -12 9 -16 38
-22 38 -8 0 4 -7 18 -16 30 -19 27 -64 29 -87 4z"/>
<path d="M2500 880 c0 -64 3 -80 15 -80 12 0 15 16 15 80 0 64 -3 80 -15 80
-12 0 -15 -16 -15 -80z"/>
<path d="M2595 948 c-2 -7 -15 -43 -29 -80 -24 -66 -24 -68 -6 -68 11 0 20 7
20 15 0 24 57 20 65 -5 3 -11 13 -20 22 -20 17 0 17 -1 -19 102 -21 63 -43 85
-53 56z"/>
<path d="M2730 877 l0 -82 47 4 c56 4 72 21 73 76 0 61 -22 85 -76 85 l-44 0
0 -83z m88 8 c3 -29 -1 -43 -14 -52 -35 -25 -44 -16 -44 43 0 54 0 55 28 52
24 -3 27 -8 30 -43z"/>
<path d="M2870 880 l0 -80 45 0 c25 0 48 0 53 0 4 0 7 6 7 12 0 9 -12 12 -37
10 -34 -3 -38 -1 -38 21 0 21 4 23 30 19 23 -3 30 0 30 12 0 11 -9 16 -30 16
-23 0 -30 4 -30 20 0 17 7 20 40 20 29 0 40 4 40 15 0 12 -13 15 -55 15 l-55
0 0 -80z"/>
<path d="M546 744 c-3 -9 -6 -18 -6 -20 0 -2 22 -4 50 -4 39 0 52 4 60 20 10
19 8 20 -44 20 -40 0 -55 -4 -60 -16z"/>
<path d="M130 679 c-33 -13 -68 -47 -88 -84 -13 -23 -16 -59 -16 -155 0 -142
9 -170 71 -217 32 -25 45 -28 108 -28 63 0 76 3 108 28 36 27 57 58 71 105 7
21 5 22 -43 22 -40 0 -51 -4 -56 -19 -17 -53 -98 -72 -139 -32 -18 19 -21 35
-24 129 -3 119 6 149 51 170 37 18 76 4 102 -35 18 -27 25 -30 65 -28 25 1 46
3 48 4 1 0 -5 18 -13 38 -20 48 -52 82 -92 99 -37 16 -116 17 -153 3z m133
-30 c33 -17 67 -51 67 -67 0 -9 -12 -4 -37 16 -46 36 -80 44 -123 32 -33 -10
-61 -39 -69 -75 -7 -27 -7 -204 0 -232 6 -28 48 -73 66 -73 7 0 13 -4 13 -9 0
-17 57 3 100 36 46 35 68 29 34 -9 -44 -47 -118 -62 -173 -33 -16 8 -43 32
-60 54 -30 38 -31 41 -31 151 0 106 1 113 27 147 16 20 41 44 58 55 34 20 95
24 128 7z"/>
<path d="M515 674 c-83 -43 -95 -73 -95 -234 0 -148 7 -172 67 -217 32 -25 45
-28 108 -28 63 0 76 3 109 29 58 44 76 92 76 212 0 56 -5 116 -11 135 -15 43
-55 88 -96 105 -43 19 -121 18 -158 -2z m175 -50 c51 -46 63 -87 59 -205 -4
-86 -7 -99 -32 -132 -35 -47 -77 -68 -125 -66 -46 3 -80 19 -109 53 -22 24
-23 35 -23 166 0 118 3 143 18 161 31 38 75 59 124 59 41 0 54 -5 88 -36z"/>
<path d="M538 619 c-46 -34 -58 -72 -57 -183 1 -118 14 -151 72 -179 46 -23
75 -17 120 22 32 29 32 29 35 141 2 61 0 119 -4 128 -4 9 -7 20 -6 23 1 3 -12
19 -28 34 -37 36 -94 41 -132 14z m120 -45 c20 -23 22 -35 22 -134 0 -99 -2
-111 -23 -135 -29 -35 -89 -37 -121 -6 -19 20 -21 33 -21 140 0 89 4 122 15
136 34 41 90 41 128 -1z"/>
<path d="M860 441 l0 -251 50 0 50 0 0 100 0 100 35 0 c34 0 35 -1 82 -100
l47 -100 53 0 c29 0 53 4 53 8 0 5 -24 53 -53 108 l-53 99 27 17 c44 27 63 64
62 120 -1 54 -18 86 -67 122 -24 18 -45 21 -157 25 l-129 3 0 -251z m237 208
c42 -16 72 -48 79 -86 9 -46 0 -72 -41 -117 -40 -43 -40 -43 6 -143 34 -71 34
-73 14 -73 -9 0 -20 12 -25 27 -17 46 -51 106 -76 134 -31 33 -32 61 -1 58 60
-7 105 51 89 113 -16 62 -127 93 -189 52 -22 -14 -24 -21 -21 -82 3 -58 6 -68
26 -77 28 -12 28 -20 -3 -47 -22 -19 -25 -29 -25 -94 0 -68 -10 -98 -25 -74
-8 14 -8 397 0 410 8 13 156 13 192 -1z m7 -71 c20 -28 20 -57 1 -83 -12 -14
-31 -20 -79 -23 l-64 -4 -4 66 -3 66 67 0 c58 0 69 -3 82 -22z"/>
<path d="M1300 440 l0 -253 119 5 c133 6 169 19 208 76 43 64 43 280 0 343
-44 65 -65 73 -202 77 l-125 4 0 -252z m256 196 c54 -32 64 -61 65 -190 1
-127 -9 -159 -62 -198 -32 -24 -191 -37 -215 -17 -19 16 -21 398 -1 418 19 20
173 10 213 -13z"/>
<path d="M1392 615 c-21 -20 -22 -29 -22 -178 l0 -157 26 -17 c15 -9 43 -17
63 -18 49 -2 125 45 109 68 -1 1 4 13 11 26 14 26 21 181 9 181 -5 0 -8 12 -8
28 0 68 -135 116 -188 67z m139 -34 c23 -18 24 -25 24 -141 0 -117 -1 -122
-25 -140 -17 -14 -41 -20 -77 -20 l-52 0 -3 160 -3 160 56 0 c41 0 63 -5 80
-19z"/>
<path d="M1825 676 c-42 -18 -82 -69 -96 -119 -6 -24 -9 -85 -7 -142 5 -114
18 -149 75 -192 32 -25 45 -28 108 -28 63 0 76 3 108 28 49 37 65 72 73 155
14 147 -11 235 -79 286 -34 25 -138 33 -182 12z m146 -31 c15 -8 41 -32 56
-52 27 -35 28 -41 28 -153 0 -112 -1 -118 -28 -153 -67 -88 -170 -90 -241 -7
-25 31 -26 36 -26 162 l0 131 44 42 c38 37 50 43 91 43 26 1 60 -5 76 -13z"/>
<path d="M1865 631 c-25 -11 -58 -46 -63 -69 -15 -56 -16 -190 -3 -227 24 -65
56 -94 103 -91 44 4 87 31 105 67 8 15 11 65 10 141 -2 117 -2 118 -32 148
-33 33 -85 46 -120 31z m100 -52 c18 -17 20 -33 20 -139 0 -109 -2 -121 -21
-141 -29 -28 -89 -28 -118 0 -18 19 -21 35 -24 129 -3 117 6 148 48 169 30 16
68 9 95 -18z"/>
<path d="M2170 440 l0 -253 134 5 c127 4 136 6 170 32 65 49 73 151 16 200
-29 23 -29 25 -12 38 43 30 56 107 26 158 -32 53 -67 65 -206 68 l-128 4 0
-252z m286 178 c39 -44 41 -59 14 -111 -26 -49 -25 -69 6 -123 23 -39 24 -47
14 -79 -19 -57 -58 -77 -159 -83 -138 -7 -131 -19 -131 216 0 145 3 201 13
211 8 9 40 12 110 9 l99 -3 34 -37z"/>
<path d="M2280 629 c0 -5 -7 -9 -15 -9 -8 0 -17 -12 -20 -27 -4 -16 -8 -38
-11 -50 -5 -26 15 -73 31 -73 17 0 34 -21 28 -36 -3 -8 -11 -14 -19 -14 -49 0
-54 -126 -5 -158 37 -25 112 -22 151 6 26 20 30 29 30 72 0 41 -4 52 -27 70
-15 11 -32 19 -39 16 -7 -3 -11 5 -11 20 0 16 5 24 17 24 27 0 60 43 60 79 0
34 -11 50 -48 70 -26 14 -122 22 -122 10z m136 -57 c14 -29 8 -59 -15 -71 -9
-5 -43 -11 -76 -12 l-60 -3 -2 57 -3 58 72 -3 c64 -3 74 -6 84 -26z m-4 -189
c22 -20 23 -61 1 -85 -12 -14 -31 -18 -84 -18 l-67 0 0 60 0 60 66 0 c47 0 71
-5 84 -17z"/>
<path d="M2713 628 c-22 -64 -50 -139 -121 -330 l-39 -108 52 0 52 0 13 45 13
45 91 0 92 0 12 -45 12 -45 50 0 c27 0 50 2 50 5 0 6 -48 135 -75 205 -8 19
-34 91 -58 160 l-44 125 -39 3 -40 3 -21 -63z m73 14 c7 -4 19 -32 29 -62 9
-30 22 -68 30 -85 7 -16 18 -46 25 -65 7 -19 16 -44 20 -55 28 -68 40 -108 40
-128 -1 -22 -1 -22 -20 3 -11 14 -25 31 -30 37 -6 7 -23 15 -38 19 -55 12 -58
15 -25 30 40 20 45 43 25 108 -31 96 -79 132 -98 74 -3 -11 -8 -17 -12 -14 -8
9 -42 -124 -35 -139 2 -7 19 -20 36 -29 27 -13 29 -16 10 -16 -12 0 -25 -4
-28 -10 -3 -5 -15 -10 -25 -10 -10 0 -27 -13 -37 -30 -9 -16 -21 -30 -25 -30
-16 0 -7 39 28 136 20 55 46 129 59 165 36 105 46 118 71 101z m22 -195 l28
-87 -62 0 -62 0 30 90 c17 50 32 89 34 87 2 -1 16 -42 32 -90z"/>
<path d="M700 40 c0 -20 7 -20 810 -20 803 0 810 0 810 20 0 20 -7 20 -810 20
-803 0 -810 0 -810 -20z"/>
</g>
</svg>
