<?xml version="1.0" standalone="no"?>
<!DOCTYPE svg PUBLIC "-//W3C//DTD SVG 20010904//EN"
 "http://www.w3.org/TR/2001/REC-SVG-20010904/DTD/svg10.dtd">
<svg version="1.0" xmlns="http://www.w3.org/2000/svg"
 width="353.000000pt" height="212.000000pt" viewBox="0 0 353.000000 212.000000"
 preserveAspectRatio="xMidYMid meet">

<g transform="translate(0.000000,212.000000) scale(0.100000,-0.100000)"
fill="#000000" stroke="none">
<path d="M0 1060 l0 -1060 1765 0 1765 0 0 1060 0 1060 -1765 0 -1765 0 0
-1060z m1151 930 c17 -10 19 -22 19 -113 0 -67 -4 -107 -12 -115 -8 -8 -65
-12 -190 -12 l-178 0 0 -548 c0 -425 -3 -552 -13 -565 -11 -15 -28 -17 -137
-15 l-125 3 -3 563 -2 562 -171 0 c-98 0 -178 4 -190 10 -17 10 -19 22 -19
115 0 88 3 106 18 114 24 14 976 15 1003 1z m872 -5 c174 -37 288 -159 318
-343 31 -189 -58 -365 -224 -442 -83 -39 -161 -50 -349 -50 l-158 0 -2 -262
-3 -263 -124 -3 c-82 -2 -128 1 -137 9 -12 10 -14 120 -14 671 0 435 4 666 10
679 10 18 24 19 313 19 224 0 320 -4 370 -15z m854 -100 c14 -9 20 -21 16 -33
-3 -14 7 -28 36 -51 38 -30 39 -33 26 -59 -7 -15 -19 -40 -26 -56 -8 -16 -24
-33 -36 -39 -13 -6 -23 -13 -23 -17 0 -3 19 -25 41 -49 36 -37 46 -42 72 -37
16 3 36 1 43 -5 20 -17 72 28 86 74 11 36 32 57 44 44 3 -3 0 -25 -7 -48 -7
-24 -16 -62 -20 -84 -4 -22 -17 -67 -29 -100 -32 -90 -122 -464 -114 -476 3
-6 21 -8 43 -4 30 5 40 2 60 -18 l22 -25 -20 -41 c-23 -43 -19 -51 10 -25 17
15 21 15 52 -5 51 -31 67 -54 83 -116 17 -65 13 -73 -39 -82 -36 -5 -36 -5
-63 51 -29 61 -41 70 -23 17 6 -18 9 -34 6 -37 -3 -3 -44 -19 -90 -35 l-84
-29 -47 26 c-41 23 -46 29 -47 62 l0 37 -27 -52 c-26 -52 -26 -53 -72 -52 -25
1 -56 -2 -69 -6 -13 -4 -28 -2 -37 6 -13 10 -37 9 -129 -6 -95 -15 -121 -16
-155 -6 -47 14 -52 36 -19 90 16 26 25 32 42 27 43 -12 126 -19 143 -12 15 6
12 11 -19 37 -20 17 -37 34 -37 38 0 5 11 24 24 44 14 20 28 57 31 84 4 26 16
77 27 112 20 61 24 133 18 267 -1 28 3 60 9 72 10 19 8 22 -13 28 -70 17 -70
58 2 259 40 110 51 130 70 133 18 3 22 10 22 40 0 53 20 86 55 92 34 7 129
-14 162 -35z m-2249 -1522 c-3 -24 -8 -28 -40 -31 l-38 -3 0 -110 0 -109 -35
0 -35 0 0 110 0 110 -35 0 c-32 0 -35 2 -35 30 l0 30 111 0 110 0 -3 -27z m92
-70 c0 -54 4 -104 9 -111 5 -8 21 -12 37 -10 l29 3 3 108 3 107 34 0 35 0 0
-111 c0 -109 0 -111 -29 -140 -24 -24 -38 -29 -76 -29 -59 0 -83 13 -101 55
-14 35 -20 206 -7 218 3 4 19 7 35 7 l28 0 0 -97z m371 68 c36 -36 37 -70 4
-110 l-26 -30 26 -50 c14 -28 25 -53 25 -56 0 -3 -16 -5 -36 -5 -33 0 -37 3
-59 55 -33 74 -55 74 -55 0 l0 -55 -35 0 -35 0 0 140 0 140 81 0 c76 0 82 -2
110 -29z m129 -111 l0 -140 -35 0 -35 0 0 140 0 140 35 0 35 0 0 -140z m193
128 c30 -16 46 -39 47 -65 0 -19 -5 -23 -30 -23 -19 0 -33 7 -40 20 -7 13 -21
20 -40 20 -51 0 -35 -27 38 -62 65 -32 67 -34 70 -74 4 -57 -29 -84 -103 -84
-61 0 -105 31 -105 75 0 21 5 25 30 25 19 0 33 -7 40 -20 14 -27 70 -28 70 -2
0 13 -12 22 -40 31 -92 27 -127 95 -75 146 19 19 35 25 70 25 26 0 56 -5 68
-12z m176 -34 l28 -46 29 46 c25 39 34 46 62 46 l32 0 0 -140 0 -140 -35 0
-35 0 -1 78 c0 73 -1 76 -16 55 -22 -32 -56 -29 -74 5 -13 26 -14 23 -17 -56
l-3 -83 -32 3 -32 3 -3 124 c-1 69 0 131 2 138 3 7 19 13 36 13 25 0 35 -8 59
-46z m370 20 c30 -25 31 -28 31 -114 0 -80 -2 -89 -25 -112 -52 -53 -146 -41
-177 22 -20 38 -24 124 -9 163 27 71 120 92 180 41z m335 0 c58 -59 21 -141
-68 -151 l-45 -5 -3 -47 c-3 -44 -4 -46 -35 -49 l-33 -3 0 140 0 141 79 0 c71
0 81 -2 105 -26z m240 0 c35 -36 35 -86 0 -119 l-25 -23 25 -51 c14 -28 26
-53 26 -56 0 -3 -15 -5 -34 -5 -31 0 -35 4 -57 55 -16 36 -30 55 -41 55 -15 0
-18 -9 -18 -55 0 -54 0 -55 -30 -55 l-30 0 0 140 0 140 79 0 c71 0 81 -2 105
-26z m231 10 c64 -42 59 -220 -7 -255 -12 -7 -43 -12 -67 -12 -37 0 -49 5 -73
31 -26 30 -28 38 -28 113 0 76 2 82 29 110 24 24 38 29 76 29 25 0 56 -7 70
-16z m280 -111 c22 -69 41 -132 43 -140 2 -9 -8 -13 -33 -13 -28 0 -38 5 -42
20 -4 16 -14 20 -53 20 -39 0 -49 -4 -53 -20 -4 -15 -14 -20 -42 -20 -28 0
-36 3 -32 15 4 8 23 67 43 132 20 65 38 121 41 126 2 4 23 7 46 7 l42 0 40
-127z"/>
<path d="M1618 1754 c-5 -4 -8 -90 -8 -191 l0 -183 160 0 c170 0 209 9 252 57
84 92 51 251 -62 301 -38 17 -329 31 -342 16z"/>
<path d="M3033 1448 c-21 -20 -26 -21 -86 -10 -98 18 -104 17 -127 -28 -11
-21 -20 -41 -20 -43 0 -2 41 -23 90 -46 86 -40 90 -43 90 -74 0 -21 -18 -61
-50 -115 -28 -46 -50 -92 -50 -103 0 -18 47 -76 55 -68 2 2 17 58 34 124 17
66 43 167 59 225 41 151 43 160 34 160 -4 0 -17 -10 -29 -22z"/>
<path d="M2725 1180 c-10 -18 -26 -58 -36 -88 -10 -30 -23 -60 -28 -66 -17
-23 -71 -176 -71 -205 0 -37 9 -61 23 -61 6 0 18 -6 26 -14 34 -30 55 -27 79
9 12 19 29 35 37 35 11 0 15 11 15 41 0 36 3 41 34 54 19 8 36 20 39 27 3 7
-16 32 -42 55 l-46 42 17 28 c37 60 75 148 68 157 -5 4 -29 11 -53 13 -43 5
-46 4 -62 -27z"/>
<path d="M970 300 c0 -26 3 -30 29 -30 32 0 56 22 47 45 -3 9 -18 15 -41 15
-32 0 -35 -2 -35 -30z"/>
<path d="M1852 318 c-18 -18 -15 -123 4 -142 20 -21 30 -20 54 4 22 22 28 97
10 131 -12 21 -50 25 -68 7z"/>
<path d="M2180 300 c0 -29 2 -31 33 -28 27 2 32 7 32 28 0 21 -5 26 -32 28
-31 3 -33 1 -33 -28z"/>
<path d="M2410 305 c0 -29 19 -40 56 -31 19 5 25 12 22 29 -2 18 -11 23 -40
25 -35 3 -38 1 -38 -23z"/>
<path d="M2667 323 c-4 -3 -7 -37 -7 -74 0 -57 3 -70 19 -79 25 -13 27 -13 45
6 19 19 22 124 4 142 -13 13 -50 16 -61 5z"/>
<path d="M2952 280 c-5 -14 -12 -37 -16 -52 -6 -26 -4 -28 25 -28 29 0 30 1
23 33 -3 17 -10 41 -14 52 -8 19 -8 19 -18 -5z"/>
</g>
</svg>
