<?xml version="1.0" standalone="no"?>
<!DOCTYPE svg PUBLIC "-//W3C//DTD SVG 20010904//EN"
 "http://www.w3.org/TR/2001/REC-SVG-20010904/DTD/svg10.dtd">
<svg version="1.0" xmlns="http://www.w3.org/2000/svg"
 width="180.000000pt" height="80.000000pt" viewBox="0 0 180.000000 80.000000"
 preserveAspectRatio="xMidYMid meet">
<metadata>
Created by potrace 1.16, written by Peter Selinger 2001-2019
</metadata>
<g transform="translate(0.000000,80.000000) scale(0.100000,-0.100000)"
fill="#000000" stroke="none">
<path d="M310 625 c0 -32 2 -35 30 -35 l30 0 0 -170 0 -170 45 0 45 0 0 170 0
170 30 0 c28 0 30 3 30 35 l0 35 -105 0 -105 0 0 -35z"/>
<path d="M560 455 l0 -205 45 0 44 0 3 88 3 87 54 5 c61 7 86 29 97 85 9 48
-15 117 -46 132 -14 7 -62 13 -112 13 l-88 0 0 -205z"/>
<path d="M810 166 c-19 -7 -64 -27 -100 -44 -96 -45 -101 -45 -138 -11 -18 16
-30 34 -26 40 11 18 -58 -22 -129 -75 l-69 -51 149 -8 c186 -10 849 -2 883 11
l25 9 -24 8 c-13 4 -50 23 -82 41 l-59 35 -76 -31 c-79 -31 -99 -36 -89 -21 3
5 1 12 -5 16 -5 3 -10 1 -10 -4 0 -25 -48 -8 -125 44 -46 30 -85 55 -87 55 -1
-1 -19 -7 -38 -14z"/>
</g>
</svg>
